<?xml version="1.0" encoding="UTF-8" standalone="no"?>
<!-- Created with Inkscape (http://www.inkscape.org/) -->

<svg
   xmlns:dc="http://purl.org/dc/elements/1.1/"
   xmlns:cc="http://creativecommons.org/ns#"
   xmlns:rdf="http://www.w3.org/1999/02/22-rdf-syntax-ns#"
   xmlns:svg="http://www.w3.org/2000/svg"
   xmlns="http://www.w3.org/2000/svg"
   xmlns:sodipodi="http://sodipodi.sourceforge.net/DTD/sodipodi-0.dtd"
   xmlns:inkscape="http://www.inkscape.org/namespaces/inkscape"
   width="184.9603mm"
   height="47.419075mm"
   viewBox="0 0 184.9603 47.419075"
   version="1.1"
   id="svg8"
   inkscape:version="0.92.2 5c3e80d, 2017-08-06"
   sodipodi:docname="rewrite-cljc-logo.svg">
  <defs
     id="defs2">
    <marker
       inkscape:stockid="DotS"
       orient="auto"
       refY="0"
       refX="0"
       id="DotS"
       style="overflow:visible"
       inkscape:isstock="true">
      <path
         id="path4593"
         d="m -2.5,-1 c 0,2.76 -2.24,5 -5,5 -2.76,0 -5,-2.24 -5,-5 0,-2.76 2.24,-5 5,-5 2.76,0 5,2.24 5,5 z"
         style="fill:#0088cc;fill-opacity:1;fill-rule:evenodd;stroke:#0088cc;stroke-width:1.00000003pt;stroke-opacity:1"
         transform="matrix(0.2,0,0,0.2,1.48,0.2)"
         inkscape:connector-curvature="0" />
    </marker>
    <marker
       inkscape:stockid="Arrow2Mstart"
       orient="auto"
       refY="0"
       refX="0"
       id="Arrow2Mstart"
       style="overflow:visible"
       inkscape:isstock="true">
      <path
         id="path4550"
         style="fill:#0088cc;fill-opacity:1;fill-rule:evenodd;stroke:#0088cc;stroke-width:0.625;stroke-linejoin:round;stroke-opacity:1"
         d="M 8.7185878,4.0337352 -2.2072895,0.01601326 8.7185884,-4.0017078 c -1.7454984,2.3720609 -1.7354408,5.6174519 -6e-7,8.035443 z"
         transform="scale(0.4)"
         inkscape:connector-curvature="0" />
    </marker>
  </defs>
  <sodipodi:namedview
     id="base"
     pagecolor="#ffffff"
     bordercolor="#666666"
     borderopacity="1.0"
     inkscape:pageopacity="0.0"
     inkscape:pageshadow="2"
     inkscape:zoom="0.81869388"
     inkscape:cx="-8.3835454"
     inkscape:cy="-351.11847"
     inkscape:document-units="mm"
     inkscape:current-layer="layer1"
     showgrid="false"
     inkscape:window-width="2560"
     inkscape:window-height="1395"
     inkscape:window-x="1920"
     inkscape:window-y="1"
     inkscape:window-maximized="1"
     fit-margin-top="0"
     fit-margin-left="0"
     fit-margin-right="0"
     fit-margin-bottom="0"
     inkscape:pagecheckerboard="false"
     showborder="true"
     borderlayer="false"
     inkscape:showpageshadow="true" />
  <metadata
     id="metadata5">
    <rdf:RDF>
      <cc:Work
         rdf:about="">
        <dc:format>image/svg+xml</dc:format>
        <dc:type
           rdf:resource="http://purl.org/dc/dcmitype/StillImage" />
        <dc:title></dc:title>
      </cc:Work>
    </rdf:RDF>
  </metadata>
  <g
     inkscape:label="Layer 1"
     inkscape:groupmode="layer"
     id="layer1"
     transform="translate(-10.63625,-8.1808304)">
    <text
       xml:space="preserve"
       style="font-style:normal;font-variant:normal;font-weight:normal;font-stretch:normal;font-size:10.58333302px;line-height:1.25;font-family:Sriracha;-inkscape-font-specification:Sriracha;letter-spacing:0px;word-spacing:0px;fill:#000000;fill-opacity:1;stroke:none;stroke-width:0.26458332px;stroke-linecap:butt;stroke-linejoin:miter;stroke-opacity:1"
       x="16.139584"
       y="20.775"
       id="text3701"><tspan
         sodipodi:role="line"
         id="tspan3699"
         x="16.139584"
         y="30.035416"
         style="font-style:normal;font-variant:normal;font-weight:normal;font-stretch:normal;font-family:Sriracha;-inkscape-font-specification:Sriracha;stroke-width:0.26458332px" /></text>
    <g
       aria-label="rewrite-cljc"
       style="font-style:normal;font-variant:normal;font-weight:normal;font-stretch:normal;font-size:10.58333302px;line-height:1.25;font-family:Sriracha;-inkscape-font-specification:Sriracha;letter-spacing:0px;word-spacing:0px;fill:#0088cc;fill-opacity:1;stroke:none;stroke-width:0.26458332px;stroke-linecap:butt;stroke-linejoin:miter;stroke-opacity:1"
       id="text3705">
      <path
         d="m 15.116528,35.309442 q -0.03528,0.211667 -0.176389,0.846667 -0.105833,0.599722 -0.599722,0.846666 -0.458611,0.246945 -1.481667,0.246945 -1.164166,0 -1.693333,-0.246945 -0.529167,-0.246944 -0.529167,-1.058333 l 1.693334,-6.738056 q 1.411111,-5.820833 1.869722,-7.408333 L 13.317362,20.73972 q -0.105834,-0.105834 -0.105834,-0.246945 0,-0.352778 0.776111,-0.564444 0.776111,-0.246945 2.151945,-0.246945 1.234722,0 1.658055,0.705556 0.423334,0.670278 0.529167,1.763889 l -0.246944,0.917222 q 1.128889,-1.375833 2.610555,-2.257778 1.516945,-0.917222 2.681111,-0.917222 1.516945,0 2.363612,0.529167 0.846666,0.529166 0.846666,1.375833 0,0.740833 -0.529166,1.552222 -0.493889,0.776111 -1.27,1.340556 -0.776112,0.529166 -1.516945,0.599722 -0.705555,0 -0.9525,-0.176389 -0.246944,-0.176389 -0.246944,-0.529167 l 0.211666,-1.164166 q -2.822222,0.776111 -5.115278,3.739444 z"
         style="font-size:35.27777863px;fill:#0088cc;fill-opacity:1;stroke-width:0.26458332px"
         id="path829" />
      <path
         d="m 31.914263,37.390831 q -3.457222,0 -5.044722,-1.375833 -1.5875,-1.375834 -1.5875,-3.668889 0,-3.351389 1.658055,-6.208889 1.693334,-2.8575 4.480278,-4.515556 2.822222,-1.693333 6.067778,-1.693333 1.975556,0 3.316111,1.128889 1.340556,1.093611 1.340556,3.245555 0,1.234722 -0.811389,2.046111 -0.776111,0.776111 -2.257778,1.411111 -1.481667,0.599723 -4.797778,1.728612 -2.998611,0.987777 -4.868333,1.658055 -0.141111,0.529167 -0.141111,1.093611 0,0.987778 0.811389,1.516945 0.846666,0.529167 2.363611,0.529167 0.9525,0 2.187222,-0.388056 1.234722,-0.388056 1.552222,-0.987778 1.199445,-2.187222 2.187223,-2.187222 1.446388,0 1.940277,0.564444 0.529167,0.529167 0.564445,1.199445 -0.423334,1.128889 -1.658056,2.293055 -1.234722,1.128889 -3.139722,1.869723 -1.905,0.740833 -4.162778,0.740833 z m -1.516944,-9.489722 q 3.4925,-1.128889 5.750277,-2.081389 2.257778,-0.987778 2.257778,-1.940278 0,-0.423333 -0.458611,-0.670278 -0.458611,-0.282222 -0.987778,-0.282222 -1.058333,0 -2.434166,0.811389 -1.340556,0.811389 -2.504723,1.975555 -1.164166,1.164167 -1.622777,2.187223 z"
         style="font-size:35.27777863px;fill:#0088cc;fill-opacity:1;stroke-width:0.26458332px"
         id="path831" />
      <path
         d="m 54.974354,29.029998 q -1.234723,3.880555 -3.175001,6.067777 -1.905,2.187223 -3.880555,2.187223 -3.527778,0 -3.527778,-6.35 0,-2.681112 0.3175,-4.938889 0.3175,-2.293056 0.881944,-4.621389 0.141112,-0.635 0.705556,-1.058334 0.599722,-0.423333 1.552222,-0.423333 1.834445,0 1.834445,1.622778 0,0.246944 -0.282222,1.375833 -0.529167,2.575278 -0.846667,4.409722 -0.282222,1.834445 -0.282222,3.4925 0,1.305278 0.211666,2.151945 0.246945,0.811389 0.776111,0.811389 0.9525,0 1.940278,-2.116667 1.023056,-2.116667 1.834445,-5.044722 0.811389,-2.963334 1.27,-5.468056 0.07055,-0.458611 0.670278,-0.811389 0.635,-0.352778 1.093611,-0.352778 1.023055,0 1.693333,0.458612 0.705556,0.423333 0.705556,1.234722 0,0.176389 -0.211667,1.093611 -0.529167,2.822222 -0.846667,4.797778 -0.282222,1.940278 -0.282222,3.633611 0,1.128889 0.352778,1.869722 0.388055,0.705556 0.9525,0.705556 1.164167,0 2.116667,-2.010834 0.9525,-2.010833 1.552222,-4.974166 0.599722,-2.998611 0.740833,-5.715 0.03528,-0.458612 0.458611,-0.670278 0.458611,-0.246945 1.093611,-0.246945 0.776112,0 1.516945,0.282223 0.740833,0.246944 0.776111,0.564444 -0.705556,7.478889 -2.610556,11.888611 -1.905,4.409723 -6.103055,4.409723 -3.139723,0 -3.139723,-5.009445 0,-1.552222 0.282223,-3.245555 z"
         style="font-size:35.27777863px;fill:#0088cc;fill-opacity:1;stroke-width:0.26458332px"
         id="path833" />
      <path
         d="m 72.486464,35.309442 q -0.03528,0.246945 -0.141111,0.846667 -0.07056,0.599722 -0.529167,0.846666 -0.423333,0.246945 -1.446389,0.246945 -1.164166,0 -1.728611,-0.246945 -0.564444,-0.246944 -0.599722,-1.058333 0.282222,-1.411111 0.917222,-5.009444 0.211667,-1.199445 0.670278,-3.598334 0.458611,-2.434167 0.705556,-3.527778 0.352777,-2.504722 0.987777,-3.280833 0.635,-0.811389 1.552223,-0.811389 1.234722,0 1.622777,0.352778 0.423334,0.352778 0.458612,0.917222 l -0.282223,2.081389 q 1.058334,-1.375833 2.504723,-2.257778 1.446389,-0.917222 2.610555,-0.917222 1.552222,0 2.434167,0.564444 0.881944,0.529167 0.881944,1.375834 0,0.635 -0.776111,0.987777 -0.740833,0.352778 -1.975555,0.458612 -1.940278,0.176389 -3.845278,1.658055 -1.905,1.481667 -2.751667,3.4925 z"
         style="font-size:35.27777863px;fill:#0088cc;fill-opacity:1;stroke-width:0.26458332px"
         id="path835" />
      <path
         d="m 86.532529,15.694997 q 0,-1.093611 0.670278,-1.940278 0.705556,-0.846666 1.940278,-0.846666 1.305278,0 2.257778,0.811389 0.987777,0.811389 0.987777,1.834444 0,1.023056 -0.987777,1.763889 -0.987778,0.740833 -2.293056,0.740833 -1.27,0 -1.940278,-0.635 -0.635,-0.670277 -0.635,-1.728611 z m -3.351389,18.59139 q 0,-0.635 3.139723,-12.700001 l -0.211667,-1.305278 q 0,-0.388055 0.458611,-0.599722 0.458611,-0.211666 1.763889,-0.211666 1.023055,0 1.481667,0.564444 0.493888,0.564444 0.493888,1.340556 0,0.211666 -0.07055,0.564444 l -3.139722,12.7 0.211666,1.305278 q 0,0.388056 -0.458611,0.599722 -0.458611,0.211667 -1.763889,0.211667 -1.164166,0 -1.516944,-0.670278 -0.352778,-0.705555 -0.388056,-1.799166 z"
         style="font-size:35.27777863px;fill:#0088cc;fill-opacity:1;stroke-width:0.26458332px"
         id="path837" />
      <path
         d="m 97.37659,32.769442 q 0,0.811389 0.423333,1.305278 0.423334,0.458611 1.199445,0.458611 1.058332,0 1.728612,-0.599722 0.70555,-0.635 1.48167,-1.763889 0.56444,-0.811389 0.91722,-1.164167 0.35278,-0.352778 0.81139,-0.352778 0.91722,0 1.30527,0.246945 0.38806,0.211666 0.38806,0.917222 0,0.3175 -0.0706,0.776111 -0.0705,0.423334 -0.17638,0.635 -0.84667,1.799167 -2.78695,3.104445 -1.905,1.305278 -4.339166,1.305278 -2.434166,0 -3.668889,-1.164167 -1.234722,-1.199445 -1.234722,-3.386667 0,-0.3175 0.3175,-1.658056 0.3175,-1.340555 0.811389,-3.210277 l 0.987778,-4.021667 -2.151945,0.176389 q -0.423333,0 -0.635,-0.3175 -0.211666,-0.3175 -0.211666,-0.776111 0,-0.881945 0.635,-1.763889 0.07055,-0.105834 0.705555,-0.211667 0.635,-0.105833 1.552223,-0.211667 l 0.9525,-0.105833 1.199444,-5.150556 q 0.352778,-0.917222 1.058333,-1.411111 0.740834,-0.529167 1.375834,-0.529167 0.705552,0 1.199442,0.423334 0.49389,0.423333 0.52917,0.987778 l -1.27,5.291666 q 1.37583,-0.176388 2.54,-0.282222 1.19944,-0.141111 1.86972,-0.141111 1.34056,0 1.34056,1.552222 0,0.599723 -0.52917,1.093611 -0.49389,0.458612 -1.09361,0.564445 l -4.93889,0.493889 z"
         style="font-size:35.27777863px;fill:#0088cc;fill-opacity:1;stroke-width:0.26458332px"
         id="path839" />
      <path
         d="m 114.15117,37.390831 q -3.4925,0 -5.11527,-1.375833 -1.5875,-1.375834 -1.5875,-3.668889 0,-3.421945 1.41111,-6.208889 1.41111,-2.822223 3.91583,-4.409723 2.50472,-1.622777 5.715,-1.622777 2.01083,0 3.35139,1.128888 1.37583,1.128889 1.37583,3.351389 0,2.363612 -1.55222,3.704167 -1.51694,1.340556 -3.98639,1.940278 -2.43416,0.564444 -6.13833,0.917222 -0.10583,0.458611 -0.10583,1.093611 0,0.987778 0.84666,1.516945 0.84667,0.529167 2.36361,0.529167 1.09361,0 2.54,-0.458612 1.48167,-0.458611 2.25778,-1.516944 0.45861,-0.599722 1.05833,-0.9525 0.635,-0.352778 1.23473,-0.352778 0.56444,0 0.91722,0.388056 0.38805,0.352777 0.38805,1.093611 -0.38805,1.128889 -1.62277,2.293055 -1.23473,1.128889 -3.13973,1.869723 -1.86972,0.740833 -4.1275,0.740833 z m -1.69333,-9.489722 q 2.25778,-0.03528 4.62139,-0.846667 2.36361,-0.846667 2.36361,-2.928056 0,-0.493889 -0.45861,-0.740833 -0.45861,-0.282222 -0.98778,-0.282222 -1.02305,0 -2.15194,0.776111 -1.09361,0.740833 -2.01084,1.869722 -0.91722,1.093611 -1.37583,2.151945 z"
         style="font-size:35.27777863px;fill:#0088cc;fill-opacity:1;stroke-width:0.26458332px"
         id="path841" />
      <path
         d="m 136.77912,29.31222 q -2.46945,0.423333 -8.46667,0.987778 h -0.21167 q -0.81139,0 -1.34055,-0.458612 -0.49389,-0.458611 -0.56445,-1.093611 l -0.0353,-0.423333 q 0,-0.917222 0.59972,-1.411111 0.59972,-0.529167 2.08139,-0.670278 l 3.70416,-0.352778 1.94028,-0.246944 2.15195,-0.282222 h 0.21166 q 0.84667,0 1.37584,0.529166 0.52916,0.493889 0.59972,1.234722 v 0.176389 q 0,0.740834 -0.56445,1.27 -0.52916,0.529167 -1.48166,0.740834 z"
         style="font-size:35.27777863px;fill:#0088cc;fill-opacity:1;stroke-width:0.26458332px"
         id="path843" />
      <path
         d="m 155.18861,33.43972 q -0.635,1.799167 -2.50472,2.892778 -1.86973,1.058333 -5.22111,1.058333 -2.32834,0 -3.84528,-0.811389 -1.51695,-0.811389 -2.2225,-2.116667 -0.70556,-1.305277 -0.70556,-2.822222 0,-3.386667 1.34056,-6.0325 1.34055,-2.681111 3.77472,-4.162778 2.46944,-1.516944 5.715,-1.516944 2.04611,0 3.52778,1.199444 1.48166,1.199445 1.48166,3.175 0,0.776111 -0.56444,1.305278 -0.52917,0.493889 -1.55222,0.493889 -0.84667,0 -1.19945,-0.423333 -0.35277,-0.458612 -0.35277,-1.058334 0,-0.776111 -0.52917,-1.234722 -0.52917,-0.458611 -1.34056,-0.458611 -1.05833,0 -2.54,1.128889 -1.44639,1.128889 -2.50472,3.139722 -1.02305,1.975556 -1.02305,4.445 0,1.093611 0.81138,1.869722 0.81139,0.776112 2.25778,0.776112 1.19945,0 1.94028,-0.458612 0.74083,-0.458611 1.5875,-1.305277 0.52917,-0.529167 0.88194,-0.776112 0.35278,-0.246944 0.74084,-0.246944 0.84666,0 1.37583,0.493889 0.52917,0.458611 0.67028,1.446389 z"
         style="font-size:35.27777863px;fill:#0088cc;fill-opacity:1;stroke-width:0.26458332px"
         id="path845" />
      <path
         d="m 164.0097,10.40333 q 0.24694,-1.1288885 0.81139,-1.6580552 0.59972,-0.5644444 1.30527,-0.5644444 0.84667,0 1.51695,0.5997222 0.70555,0.5997222 0.74083,1.4111114 0,0.211666 -0.0705,0.564444 l -6.20889,25.188334 q -0.52917,1.481667 -1.44639,1.481667 -0.74084,0 -1.34056,-0.917222 -0.56444,-0.917223 -0.56444,-2.081389 0,-0.458611 0.10583,-0.917223 z"
         style="font-size:35.27777863px;fill:#0088cc;fill-opacity:1;stroke-width:0.26458332px"
         id="path847" />
      <path
         d="m 173.75189,15.694997 q 0,-1.093611 0.67028,-1.940278 0.70555,-0.846666 1.94027,-0.846666 1.30528,0 2.25778,0.811389 0.98778,0.811389 0.98778,1.834444 0,1.023056 -0.98778,1.763889 -0.98778,0.740833 -2.29305,0.740833 -1.27,0 -1.94028,-0.635 -0.635,-0.670277 -0.635,-1.728611 z m -1.02306,4.833056 Q 172.623,20.42222 172.623,20.281108 q 0,-0.352777 0.77611,-0.564444 0.77611,-0.246944 2.15195,-0.246944 1.23472,0 1.76388,0.740833 0.56445,0.705555 0.67028,1.728611 -2.32833,9.630834 -3.73944,15.028334 -0.9525,3.704166 -2.78695,5.573889 -1.83444,1.869722 -5.18583,1.869722 -1.62278,0 -2.75167,-0.705556 -1.16416,-0.705555 -1.69333,-1.799166 -0.56444,-1.058334 -0.56444,-2.2225 0,-0.881945 0.42333,-1.411111 0.38805,-0.529167 1.65805,-0.529167 0.45862,0 0.67028,0.352778 0.17639,0.352777 0.3175,1.093611 0.21167,1.058333 0.59972,1.622778 0.38806,0.564444 1.48167,0.564444 1.23472,0 2.08139,-1.058333 0.88194,-1.058334 1.34056,-2.998611 l 3.84527,-15.73389 z"
         style="font-size:35.27777863px;fill:#0088cc;fill-opacity:1;stroke-width:0.26458332px"
         id="path849" />
      <path
         d="m 194.25599,33.43972 q -0.635,1.799167 -2.50472,2.892778 -1.86972,1.058333 -5.22111,1.058333 -2.32834,0 -3.84528,-0.811389 -1.51694,-0.811389 -2.2225,-2.116667 -0.70556,-1.305277 -0.70556,-2.822222 0,-3.386667 1.34056,-6.0325 1.34056,-2.681111 3.77472,-4.162778 2.46945,-1.516944 5.715,-1.516944 2.04611,0 3.52778,1.199444 1.48167,1.199445 1.48167,3.175 0,0.776111 -0.56445,1.305278 -0.52916,0.493889 -1.55222,0.493889 -0.84667,0 -1.19944,-0.423333 -0.35278,-0.458612 -0.35278,-1.058334 0,-0.776111 -0.52917,-1.234722 -0.52916,-0.458611 -1.34055,-0.458611 -1.05834,0 -2.54,1.128889 -1.44639,1.128889 -2.50473,3.139722 -1.02305,1.975556 -1.02305,4.445 0,1.093611 0.81139,1.869722 0.81139,0.776112 2.25777,0.776112 1.19945,0 1.94028,-0.458612 0.74084,-0.458611 1.5875,-1.305277 0.52917,-0.529167 0.88195,-0.776112 0.35278,-0.246944 0.74083,-0.246944 0.84667,0 1.37583,0.493889 0.52917,0.458611 0.67028,1.446389 z"
         style="font-size:35.27777863px;fill:#0088cc;fill-opacity:1;stroke-width:0.26458332px"
         id="path851" />
    </g>
    <path
       style="fill:none;fill-rule:evenodd;stroke:#0088cc;stroke-width:3;stroke-linecap:butt;stroke-linejoin:miter;stroke-miterlimit:4;stroke-dasharray:none;stroke-opacity:1;marker-start:url(#Arrow2Mstart);marker-end:url(#DotS)"
       d="m 150.91765,42.713883 c 1.58635,2.67538 3.80128,6.700577 5.36406,8.706534 4.78521,6.14223 9.47022,1.079916 26.3462,-8.706534"
       id="path4890"
       inkscape:connector-curvature="0"
       sodipodi:nodetypes="csc" />
  </g>
</svg>
